<?xml version="1.0" encoding="UTF-8" standalone="no"?>
<!DOCTYPE svg PUBLIC "-//W3C//DTD SVG 1.1//EN"
 "http://www.w3.org/Graphics/SVG/1.1/DTD/svg11.dtd">
<!-- Generated by graphviz version 2.43.0 (0)
 -->
<!-- Title: %3 Pages: 1 -->
<svg width="375pt" height="820pt"
 viewBox="0.00 0.00 374.84 820.47" xmlns="http://www.w3.org/2000/svg" xmlns:xlink="http://www.w3.org/1999/xlink">
<g id="graph0" class="graph" transform="scale(1 1) rotate(0) translate(4 816.47)">
<title>%3</title>
<polygon fill="white" stroke="transparent" points="-4,4 -4,-816.47 370.84,-816.47 370.84,4 -4,4"/>
<!-- 0 -->
<g id="node1" class="node">
<title>0</title>
<ellipse fill="none" stroke="black" cx="193.84" cy="-794.47" rx="18" ry="18"/>
</g>
<!-- 1 -->
<g id="node2" class="node">
<title>1</title>
<ellipse fill="none" stroke="black" cx="196.84" cy="-707.47" rx="18" ry="18"/>
<text text-anchor="middle" x="196.84" y="-703.77" font-family="Times,serif" font-size="14.00">s</text>
</g>
<!-- 0&#45;&gt;1 -->
<g id="edge9" class="edge">
<title>0&#45;&gt;1</title>
<path fill="none" stroke="black" d="M194.44,-776.26C194.85,-764.63 195.4,-749.01 195.87,-735.7"/>
<polygon fill="black" stroke="black" points="199.37,-735.76 196.23,-725.64 192.38,-735.51 199.37,-735.76"/>
<text text-anchor="middle" x="199.84" y="-747.27" font-family="Times,serif" font-size="14.00">s</text>
</g>
<!-- 0&#45;&gt;1 -->
<g id="edge15" class="edge">
<title>0&#45;&gt;1</title>
<path fill="none" stroke="black" stroke-dasharray="1,5" d="M191.65,-766.11C191.36,-758.75 191.31,-750.8 191.84,-743.47 192.25,-737.59 193.06,-731.2 193.91,-725.5"/>
<polygon fill="none" stroke="black" points="188.16,-766.54 192.21,-776.33 195.15,-766.15 188.16,-766.54"/>
</g>
<!-- 3 -->
<g id="node4" class="node">
<title>3</title>
<ellipse fill="none" stroke="black" cx="207.84" cy="-522.47" rx="23.3" ry="23.3"/>
<text text-anchor="middle" x="207.84" y="-518.77" font-family="Times,serif" font-size="14.00">sci</text>
</g>
<!-- 0&#45;&gt;3 -->
<g id="edge1" class="edge">
<title>0&#45;&gt;3</title>
<path fill="none" stroke="black" d="M202.52,-778.68C209.84,-765.3 219.76,-744.78 223.84,-725.47 235.62,-669.54 229.96,-653.69 223.84,-596.87 222.34,-582.95 219.28,-567.81 216.24,-554.91"/>
<polygon fill="black" stroke="black" points="219.62,-553.99 213.83,-545.11 212.82,-555.66 219.62,-553.99"/>
<text text-anchor="middle" x="233.34" y="-660.27" font-family="Times,serif" font-size="14.00">i</text>
</g>
<!-- 0&#45;&gt;3 -->
<g id="edge17" class="edge">
<title>0&#45;&gt;3</title>
<path fill="none" stroke="black" stroke-dasharray="1,5" d="M215.36,-775.82C220.65,-770.66 225.91,-764.72 229.84,-758.47 238.06,-745.37 238.36,-740.73 240.84,-725.47 252.35,-654.51 261.2,-630.35 233.84,-563.87 230.66,-556.16 226,-548.31 221.5,-541.6"/>
<polygon fill="none" stroke="black" points="212.78,-773.43 207.74,-782.75 217.49,-778.61 212.78,-773.43"/>
</g>
<!-- 5 -->
<g id="node6" class="node">
<title>5</title>
<ellipse fill="none" stroke="black" cx="207.84" cy="-305.43" rx="34.39" ry="34.39"/>
<text text-anchor="middle" x="207.84" y="-301.73" font-family="Times,serif" font-size="14.00">scien</text>
</g>
<!-- 0&#45;&gt;5 -->
<g id="edge12" class="edge">
<title>0&#45;&gt;5</title>
<path fill="none" stroke="black" d="M212.22,-793.59C241.08,-792.84 297.38,-787.43 332.84,-758.47 351.93,-742.87 356.84,-733.12 356.84,-708.47 356.84,-708.47 356.84,-708.47 356.84,-418.48 356.84,-389.51 353.18,-378.5 332.84,-357.88 310.91,-335.66 278.03,-322.64 251.49,-315.26"/>
<polygon fill="black" stroke="black" points="252.22,-311.84 241.66,-312.7 250.46,-318.61 252.22,-311.84"/>
<text text-anchor="middle" x="361.84" y="-567.67" font-family="Times,serif" font-size="14.00">n</text>
</g>
<!-- 0&#45;&gt;5 -->
<g id="edge19" class="edge">
<title>0&#45;&gt;5</title>
<path fill="none" stroke="black" stroke-dasharray="1,5" d="M221.62,-787.6C258.45,-778.01 318.84,-755.16 318.84,-708.47 318.84,-708.47 318.84,-708.47 318.84,-418.48 318.84,-372.75 271.6,-339 238.76,-321.06"/>
<polygon fill="none" stroke="black" points="220.37,-784.3 211.48,-790.06 222.02,-791.1 220.37,-784.3"/>
</g>
<!-- 7 -->
<g id="node8" class="node">
<title>7</title>
<ellipse fill="none" stroke="black" cx="93.84" cy="-707.47" rx="18" ry="18"/>
<polyline fill="none" stroke="black" points="105.74,-720.97 81.93,-720.97 "/>
<polyline fill="none" stroke="black" points="105.74,-693.97 81.93,-693.97 "/>
<text text-anchor="middle" x="93.84" y="-703.77" font-family="Times,serif" font-size="14.00">c</text>
</g>
<!-- 0&#45;&gt;7 -->
<g id="edge6" class="edge">
<title>0&#45;&gt;7</title>
<path fill="none" stroke="black" d="M176.96,-788.1C161.69,-782.59 139.29,-772.78 123.84,-758.47 116.31,-751.5 110.04,-742.21 105.21,-733.53"/>
<polygon fill="black" stroke="black" points="108.24,-731.77 100.55,-724.49 102.02,-734.98 108.24,-731.77"/>
<text text-anchor="middle" x="127.84" y="-747.27" font-family="Times,serif" font-size="14.00">c</text>
</g>
<!-- 0&#45;&gt;7 -->
<g id="edge21" class="edge">
<title>0&#45;&gt;7</title>
<path fill="none" stroke="black" stroke-dasharray="1,5" d="M166.15,-788.8C147.2,-784.2 122.87,-775.31 107.84,-758.47 99.79,-749.45 96.33,-736.18 94.86,-725.57"/>
<polygon fill="none" stroke="black" points="165.51,-792.24 176.03,-790.93 166.99,-785.4 165.51,-792.24"/>
</g>
<!-- 9 -->
<g id="node10" class="node">
<title>9</title>
<ellipse fill="none" stroke="black" cx="144.84" cy="-522.47" rx="18" ry="18"/>
<polyline fill="none" stroke="black" points="156.74,-535.97 132.93,-535.97 "/>
<polyline fill="none" stroke="black" points="156.74,-508.97 132.93,-508.97 "/>
<text text-anchor="middle" x="144.84" y="-518.77" font-family="Times,serif" font-size="14.00">e</text>
</g>
<!-- 0&#45;&gt;9 -->
<g id="edge13" class="edge">
<title>0&#45;&gt;9</title>
<path fill="none" stroke="black" d="M176.21,-789.55C155.8,-784.5 121.66,-774.41 95.84,-758.47 48.22,-729.08 26.83,-722.92 4.84,-671.47 -22.03,-608.62 71.45,-556.32 118.89,-534.46"/>
<polygon fill="black" stroke="black" points="120.55,-537.55 128.25,-530.26 117.69,-531.16 120.55,-537.55"/>
<text text-anchor="middle" x="9.34" y="-660.27" font-family="Times,serif" font-size="14.00">e</text>
</g>
<!-- 0&#45;&gt;9 -->
<g id="edge23" class="edge">
<title>0&#45;&gt;9</title>
<path fill="none" stroke="black" stroke-dasharray="1,5" d="M183.43,-768.14C178.62,-755.51 173.23,-739.89 169.84,-725.47 154,-658.22 147.77,-575.88 145.71,-540.72"/>
<polygon fill="none" stroke="black" points="180.21,-769.51 187.11,-777.55 186.72,-766.96 180.21,-769.51"/>
</g>
<!-- 2 -->
<g id="node3" class="node">
<title>2</title>
<ellipse fill="none" stroke="black" cx="193.84" cy="-617.67" rx="20.6" ry="20.6"/>
<text text-anchor="middle" x="193.84" y="-613.97" font-family="Times,serif" font-size="14.00">sc</text>
</g>
<!-- 1&#45;&gt;2 -->
<g id="edge10" class="edge">
<title>1&#45;&gt;2</title>
<path fill="none" stroke="black" d="M196.24,-689.12C195.85,-677.68 195.33,-662.4 194.87,-648.99"/>
<polygon fill="black" stroke="black" points="198.36,-648.62 194.52,-638.74 191.37,-648.86 198.36,-648.62"/>
<text text-anchor="middle" x="199.84" y="-660.27" font-family="Times,serif" font-size="14.00">c</text>
</g>
<!-- 2&#45;&gt;3 -->
<g id="edge11" class="edge">
<title>2&#45;&gt;3</title>
<path fill="none" stroke="black" d="M196.8,-596.9C198.6,-584.98 200.92,-569.5 202.97,-555.84"/>
<polygon fill="black" stroke="black" points="206.45,-556.23 204.48,-545.82 199.53,-555.19 206.45,-556.23"/>
<text text-anchor="middle" x="204.34" y="-567.67" font-family="Times,serif" font-size="14.00">i</text>
</g>
<!-- 4 -->
<g id="node5" class="node">
<title>4</title>
<ellipse fill="none" stroke="black" cx="207.84" cy="-419.48" rx="28.7" ry="28.7"/>
<text text-anchor="middle" x="207.84" y="-415.78" font-family="Times,serif" font-size="14.00">scie</text>
</g>
<!-- 3&#45;&gt;4 -->
<g id="edge2" class="edge">
<title>3&#45;&gt;4</title>
<path fill="none" stroke="black" d="M207.84,-499.06C207.84,-487.11 207.84,-472.09 207.84,-458.38"/>
<polygon fill="black" stroke="black" points="211.34,-458.24 207.84,-448.24 204.34,-458.24 211.34,-458.24"/>
<text text-anchor="middle" x="212.34" y="-469.87" font-family="Times,serif" font-size="14.00">e</text>
</g>
<!-- 4&#45;&gt;5 -->
<g id="edge3" class="edge">
<title>4&#45;&gt;5</title>
<path fill="none" stroke="black" d="M207.84,-390.78C207.84,-378.59 207.84,-363.98 207.84,-350.36"/>
<polygon fill="black" stroke="black" points="211.34,-350.21 207.84,-340.21 204.34,-350.21 211.34,-350.21"/>
<text text-anchor="middle" x="212.84" y="-361.68" font-family="Times,serif" font-size="14.00">n</text>
</g>
<!-- 6 -->
<g id="node7" class="node">
<title>6</title>
<ellipse fill="none" stroke="black" cx="152.84" cy="-180.34" rx="39.79" ry="39.79"/>
<text text-anchor="middle" x="152.84" y="-176.64" font-family="Times,serif" font-size="14.00">scienc</text>
</g>
<!-- 5&#45;&gt;6 -->
<g id="edge4" class="edge">
<title>5&#45;&gt;6</title>
<path fill="none" stroke="black" d="M194.1,-273.69C187.72,-259.42 180.02,-242.17 173,-226.46"/>
<polygon fill="black" stroke="black" points="176.01,-224.62 168.73,-216.92 169.62,-227.48 176.01,-224.62"/>
<text text-anchor="middle" x="187.84" y="-241.79" font-family="Times,serif" font-size="14.00">c</text>
</g>
<!-- 8 -->
<g id="node9" class="node">
<title>8</title>
<ellipse fill="none" stroke="black" cx="84.84" cy="-44.85" rx="44.69" ry="44.69"/>
<text text-anchor="middle" x="84.84" y="-41.15" font-family="Times,serif" font-size="14.00">science</text>
</g>
<!-- 6&#45;&gt;8 -->
<g id="edge5" class="edge">
<title>6&#45;&gt;8</title>
<path fill="none" stroke="black" d="M135.15,-144.61C127.31,-129.23 117.96,-110.87 109.46,-94.18"/>
<polygon fill="black" stroke="black" points="112.49,-92.43 104.84,-85.11 106.26,-95.61 112.49,-92.43"/>
<text text-anchor="middle" x="128.34" y="-111.49" font-family="Times,serif" font-size="14.00">e</text>
</g>
<!-- 7&#45;&gt;2 -->
<g id="edge16" class="edge">
<title>7&#45;&gt;2</title>
<path fill="none" stroke="black" stroke-dasharray="1,5" d="M114.47,-688.35C133.5,-671.64 161.32,-647.22 178.46,-632.16"/>
<polygon fill="none" stroke="black" points="112.11,-685.76 106.91,-694.99 116.73,-691.02 112.11,-685.76"/>
</g>
<!-- 7&#45;&gt;3 -->
<g id="edge8" class="edge">
<title>7&#45;&gt;3</title>
<path fill="none" stroke="black" d="M102.42,-691.42C114.62,-670.16 137.85,-630.19 158.84,-596.87 168.55,-581.45 179.81,-564.51 189.09,-550.8"/>
<polygon fill="black" stroke="black" points="192.14,-552.54 194.86,-542.3 186.35,-548.6 192.14,-552.54"/>
<text text-anchor="middle" x="161.34" y="-613.97" font-family="Times,serif" font-size="14.00">i</text>
</g>
<!-- 7&#45;&gt;6 -->
<g id="edge20" class="edge">
<title>7&#45;&gt;6</title>
<path fill="none" stroke="black" stroke-dasharray="1,5" d="M81.46,-681.75C73.96,-664.51 65.84,-640.74 65.84,-618.67 65.84,-618.67 65.84,-618.67 65.84,-364.38 65.84,-305.97 102.42,-246.35 128.14,-211.64"/>
<polygon fill="none" stroke="black" points="78.39,-683.44 85.74,-691.08 84.75,-680.53 78.39,-683.44"/>
</g>
<!-- 7&#45;&gt;8 -->
<g id="edge7" class="edge">
<title>7&#45;&gt;8</title>
<path fill="none" stroke="black" d="M79.19,-696.43C59.74,-681.8 27.84,-652.61 27.84,-618.67 27.84,-618.67 27.84,-618.67 27.84,-179.34 27.84,-148.25 41.07,-116.13 54.78,-91.19"/>
<polygon fill="black" stroke="black" points="57.92,-92.76 59.83,-82.34 51.84,-89.29 57.92,-92.76"/>
<text text-anchor="middle" x="32.34" y="-415.78" font-family="Times,serif" font-size="14.00">e</text>
</g>
<!-- 9&#45;&gt;4 -->
<g id="edge18" class="edge">
<title>9&#45;&gt;4</title>
<path fill="none" stroke="black" stroke-dasharray="1,5" d="M159.65,-497.72C169.75,-481.54 183.05,-460.21 193.12,-444.07"/>
<polygon fill="none" stroke="black" points="156.45,-496.23 154.13,-506.57 162.39,-499.94 156.45,-496.23"/>
</g>
<!-- 9&#45;&gt;5 -->
<g id="edge14" class="edge">
<title>9&#45;&gt;5</title>
<path fill="none" stroke="black" d="M144.65,-504.1C144.85,-478.63 147.09,-429.93 159.84,-390.88 165.3,-374.15 174.28,-357.03 183.01,-342.62"/>
<polygon fill="black" stroke="black" points="186.05,-344.35 188.38,-334.02 180.11,-340.65 186.05,-344.35"/>
<text text-anchor="middle" x="164.84" y="-415.78" font-family="Times,serif" font-size="14.00">n</text>
</g>
<!-- 9&#45;&gt;8 -->
<g id="edge22" class="edge">
<title>9&#45;&gt;8</title>
<path fill="none" stroke="black" stroke-dasharray="1,5" d="M140.89,-494.28C133.29,-441.46 116.25,-321.31 103.84,-219.99 98.4,-175.61 92.94,-124.78 89.28,-89.54"/>
<polygon fill="none" stroke="black" points="137.47,-495.1 142.37,-504.49 144.4,-494.1 137.47,-495.1"/>
</g>
</g>
</svg>
